# xmcd
#
# Track frame offsets:
#	150
#	20525
#	42007
#	57867
#	74827
#	94505
#	114697
#	131987
#	149842
#	170192
#	191712
#	207565
#	224520
#	244145
#	264227
#	281512
#
# Disc length: 3992 seconds
#
# Revision: 2
# Processed by: cddbd v1.5.1PL2 Copyright (c) Steve Scherf et al.
# Submitted via: audiograbber 1.83.01
#
DISCID=0c0f9610
DTITLE=Faith Hill -  Sc2242
DYEAR=1900
DGENRE=Country
TTITLE0=That's How Love Moves
TTITLE1=There Will Come a Day
TTITLE2=The Way You Love Me
TTITLE3=I Got My Baby
TTITLE4=Breathe
TTITLE5=Let's make Love
TTITLE6=If My Heart Had Wings
TTITLE7=Bringing Out the Elvis
TTITLE8=That's How Love Moves (Vocal)
TTITLE9=There Will Come a Day (Vocal)
TTITLE10=The Way You Love Me (Vocal)
TTITLE11=I Got My Baby (Vocal)
TTITLE12=Breathe (Vocal)
TTITLE13=Let's Make Love (Vocal)
TTITLE14=If My Heart Had Wings (Vocal)
TTITLE15=Bringing Out the Elvis (Vocal)
EXTD=Vocal Demo has vocals through right channel only
EXTT0=
EXTT1=
EXTT2=
EXTT3=
EXTT4=
EXTT5=
EXTT6=
EXTT7=
EXTT8=
EXTT9=
EXTT10=
EXTT11=
EXTT12=
EXTT13=
EXTT14=
EXTT15=
PLAYORDER=
